<?xml version="1.0" standalone="no"?>
<!DOCTYPE svg PUBLIC "-//W3C//DTD SVG 20010904//EN"
 "http://www.w3.org/TR/2001/REC-SVG-20010904/DTD/svg10.dtd">
<svg version="1.0" xmlns="http://www.w3.org/2000/svg"
 width="70.000000pt" height="70.000000pt" viewBox="0 0 70.000000 70.000000"
 preserveAspectRatio="xMidYMid meet">
<metadata>
Created by potrace 1.11, written by Peter Selinger 2001-2013
</metadata>
<g transform="translate(0.000000,70.000000) scale(0.100000,-0.100000)"
fill="#000000" stroke="none">
<path d="M30 365 l0 -225 25 0 25 0 0 100 0 100 115 0 115 0 0 -79 c0 -70 -2
-79 -20 -84 -30 -8 -26 -45 5 -53 39 -10 69 2 109 43 35 36 40 38 99 37 42 0
76 -7 106 -22 55 -27 61 -27 61 -2 0 29 -32 41 -131 47 -49 3 -89 7 -89 8 0 1
20 45 45 96 30 63 59 108 90 137 33 32 45 51 45 73 0 72 -58 33 -113 -74 -27
-55 -65 -84 -123 -97 l-34 -8 0 114 0 114 -25 0 -25 0 0 -100 0 -100 -115 0
-115 0 0 100 0 100 -25 0 -25 0 0 -225z m581 157 c-6 -11 -18 -22 -26 -26 -18
-6 -13 6 13 37 19 22 27 15 13 -11z m-161 -189 c-38 -70 -75 -126 -85 -130 -6
-2 -9 27 -7 74 2 42 7 72 10 66 5 -8 22 -4 52 11 25 12 46 21 48 20 2 -1 -6
-19 -18 -41z m-103 -159 c-3 -3 -12 -4 -19 -1 -8 3 -5 6 6 6 11 1 17 -2 13 -5z
m-27 -14 c12 -8 9 -10 -13 -10 -16 0 -26 4 -22 10 8 12 16 12 35 0z"/>
</g>
</svg>
